# xmcd CD database file
#
# Track frame offsets:
#	150
#	34462
#	69912
#	92759
#	131049
#	158266
#	200966
#	251481
#	296950
#	320835
#
# Disc length: 4312 seconds
#
# Revision: 1
# Processed by: cddbd v1.5.2PL0 Copyright (c) Steve Scherf et al.
# Submitted via: CDex 1.51
#
DISCID=9910d60a
DTITLE=Rory Gallagher - Irish Tour..
DYEAR=1974
DGENRE=Blues
TTITLE0=Cradle Rock
TTITLE1=I Wonder Who
TTITLE2=Tatoo'd Lady
TTITLE3=Too Much Alcohol
TTITLE4=As The Crow Flies
TTITLE5=A Million Miles Away
TTITLE6=Walk On Hot Coals
TTITLE7=Who's That Coming?
TTITLE8=Back On My Stompin' Ground (After Hours)
TTITLE9=Maritime
EXTD=YEAR: 1974
EXTT0=
EXTT1=
EXTT2=
EXTT3=
EXTT4=
EXTT5=
EXTT6=
EXTT7=
EXTT8=
EXTT9=
PLAYORDER=
